<?xml version="1.0" encoding="UTF-8"?>
<svg version="1.1" xmlns="http://www.w3.org/2000/svg" width="500" height="500">
<path d="M0 0 C165 0 330 0 500 0 C500 165 500 330 500 500 C335 500 170 500 0 500 C0 335 0 170 0 0 Z " fill="#010100" transform="translate(0,0)"/>
<path d="M0 0 C3.9830434 0.79675328 7.8911975 1.81917027 11.8125 2.875 C12.86115234 3.14441406 13.90980469 3.41382813 14.99023438 3.69140625 C22.74003067 5.74003067 22.74003067 5.74003067 25 8 C25.18788205 10.59008309 25.25187766 13.07230933 25.22705078 15.66259766 C25.22734283 16.45292892 25.22763489 17.24326019 25.22793579 18.05754089 C25.22653962 20.67649214 25.21096505 23.2951608 25.1953125 25.9140625 C25.19158339 27.72724248 25.18873594 29.54042447 25.18673706 31.35360718 C25.17909257 36.13107851 25.15943712 40.90842867 25.1373291 45.68585205 C25.1168882 50.55878052 25.10773911 55.43172853 25.09765625 60.3046875 C25.07619197 69.86984497 25.04204623 79.43491242 25 89 C25.90363281 88.71125 26.80726563 88.4225 27.73828125 88.125 C28.91777344 87.75375 30.09726563 87.3825 31.3125 87 C33.07013672 86.443125 33.07013672 86.443125 34.86328125 85.875 C38 85 38 85 41 85 C40.96669083 83.93670471 40.96669083 83.93670471 40.93270874 82.85192871 C40.731648 76.14435456 40.57975421 69.4376304 40.48187828 62.72771454 C40.429861 59.27842349 40.35943308 55.83163781 40.24560547 52.38378906 C40.11532756 48.41242379 40.06749531 44.44204281 40.0234375 40.46875 C39.97182465 39.24136108 39.92021179 38.01397217 39.86703491 36.74938965 C39.86155136 28.32343027 39.86155136 28.32343027 43.18731689 24.45727539 C45.70671105 22.41822107 48.22518968 20.66955963 51 19 C51.99 18.34 52.98 17.68 54 17 C62.10752486 16.65948396 71.18415205 18.95810972 79 21 C81 23 81 23 81.24050903 25.4803772 C81.23606781 26.52406464 81.23162659 27.56775208 81.22705078 28.64306641 C81.22689972 29.82413971 81.22674866 31.00521301 81.22659302 32.22207642 C81.21627045 33.50230682 81.20594788 34.78253723 81.1953125 36.1015625 C81.1924826 37.40829926 81.18965271 38.71503601 81.18673706 40.06137085 C81.17909776 43.53682081 81.1594469 47.01210383 81.1373291 50.48748779 C81.11687696 54.03330222 81.10773671 57.5791436 81.09765625 61.125 C81.07620116 68.08340195 81.04206173 75.04169296 81 82 C81.74765625 82.06058594 82.4953125 82.12117188 83.265625 82.18359375 C84.25046875 82.26738281 85.2353125 82.35117188 86.25 82.4375 C87.71179688 82.55931641 87.71179688 82.55931641 89.203125 82.68359375 C91.56461753 82.95074584 93.71901065 83.35371968 96 84 C95.97557327 83.45400146 95.95114655 82.90800293 95.92597961 82.34545898 C95.68162742 76.63557611 95.51634268 70.92718666 95.39575195 65.21337891 C95.34060582 63.08483527 95.2656618 60.95670518 95.17016602 58.82958984 C94.40362873 41.30990872 94.40362873 41.30990872 98.25146484 35.7421875 C102.36186545 32.51293864 105.45851933 31.05214311 110.6953125 30.875 C111.78585937 31.24625 112.87640625 31.6175 114 32 C115.30780321 32.32114498 116.61783042 32.6333383 117.9296875 32.9375 C119.24591983 33.28745066 120.56103099 33.64164482 121.875 34 C122.55046875 34.17789063 123.2259375 34.35578125 123.921875 34.5390625 C128.87066449 35.87066449 128.87066449 35.87066449 130 37 C130.12299166 38.68709347 130.17785258 40.37920903 130.20532227 42.07055664 C130.22526749 43.15160172 130.24521271 44.23264679 130.26576233 45.34645081 C130.29083107 47.110485 130.29083107 47.110485 130.31640625 48.91015625 C130.33718735 50.10732773 130.35796844 51.30449921 130.37937927 52.53794861 C130.44500279 56.37940487 130.50381903 60.22093201 130.5625 64.0625 C130.60567305 66.65951267 130.64928693 69.25651806 130.69335938 71.85351562 C130.8006972 78.2356036 130.90192818 84.61776318 131 91 C135.29 91.33 139.58 91.66 144 92 C144 92.99 144 93.98 144 95 C129.79502193 95.32447919 117.04901166 93.33020529 103.26171875 90.015625 C99.32868773 89.07262276 95.3887211 88.17643259 91.4375 87.3125 C90.38433594 87.08175781 89.33117187 86.85101563 88.24609375 86.61328125 C59.79891733 81.23878462 34.79472908 89.10866544 9.22802734 100.80761719 C-6.67509415 108.00914693 -21.71372529 110.39486414 -39 110 C-39 108.68 -39 107.36 -39 106 C-35.37 106 -31.74 106 -28 106 C-28.03997101 104.88881302 -28.07994202 103.77762604 -28.12112427 102.63276672 C-28.48740009 92.11598535 -28.75646766 81.60050985 -28.93261909 71.07877827 C-29.02624081 65.66983395 -29.15296325 60.26606931 -29.35791016 54.86010742 C-29.55479524 49.63355253 -29.66135728 44.41194541 -29.70779037 39.18196678 C-29.74083148 37.19629147 -29.805373 35.2108619 -29.90314102 33.22731972 C-30.61849416 18.10008436 -30.61849416 18.10008436 -26.1957016 12.86385727 C-21.85591263 8.95693619 -17.07334909 5.88983833 -11.96502495 3.08436871 C-7.47869441 0.6086564 -5.16032359 -0.58574784 0 0 Z " fill="#DCBC34" transform="translate(190,132)"/>
<path d="M0 0 C9.12688337 1.30384048 18.05572809 3.76393202 27 6 C27 33.39 27 60.78 27 89 C-2.67642527 102.35439137 -2.67642527 102.35439137 -13 102 C-9.32628876 97.84710903 -4.77633541 94.76621742 0 92 C0.66 92 1.32 92 2 92 C2 91.01 2 90.02 2 89 C-4.16434133 91.79139985 -9.30138287 95.28573511 -14.6796875 99.390625 C-17 101 -17 101 -19 101 C-19.62473661 97.17256052 -19.80807599 93.81022771 -19 90 C-16.18573409 86.68749 -12.77187431 84.65103701 -9.0625 82.4375 C-7.19750945 81.25138126 -5.3341392 80.06270972 -3.47265625 78.87109375 C-2.64000244 78.36505615 -1.80734863 77.85901855 -0.94946289 77.33764648 C1.13107298 76.14158894 1.13107298 76.14158894 2 74 C-3.14820143 76.02391125 -7.40765961 78.4455759 -11.875 81.6875 C-17.89244186 86 -17.89244186 86 -19 86 C-19.70223072 82.14127767 -19.90234831 78.83751498 -19 75 C-15.80932725 71.55804716 -12.02948548 69.35872321 -8 67 C-6.28420999 65.90745643 -4.57502113 64.80442209 -2.875 63.6875 C-2.15054688 63.23761719 -1.42609375 62.78773438 -0.6796875 62.32421875 C1.30116111 61.01188997 1.30116111 61.01188997 2 58 C-3.50370641 60.94384297 -8.55608002 64.40068304 -13.64331055 68.00170898 C-17.9002207 71 -17.9002207 71 -19 71 C-19.55670338 67.1992967 -19.73254265 63.78565745 -19 60 C-16.4917443 56.89877605 -13.37221921 55.07483091 -10 53 C-8.18320401 51.69345309 -6.37059243 50.38106522 -4.5625 49.0625 C-0.26153846 46 -0.26153846 46 2 46 C2 45.01 2 44.02 2 43 C-3.28179514 45.47284045 -7.79242897 48.55368197 -12.49609375 51.94726562 C-16.79699046 55 -16.79699046 55 -19 55 C-19.58145034 51.18913142 -19.76776543 47.79396608 -19 44 C-16.3616229 40.86517785 -13.15495968 39.02364068 -9.625 37 C-7.86463482 35.92081961 -6.10670378 34.83765573 -4.3515625 33.75 C-3.17327881 33.06164062 -3.17327881 33.06164062 -1.97119141 32.359375 C0.27332821 30.99089992 0.27332821 30.99089992 2 28 C-2.78850772 29.61472935 -6.624197 32.2870199 -10.75 35.125 C-17.88119835 40 -17.88119835 40 -19 40 C-20.21949332 35.95096334 -20.38842475 33.02448992 -19 29 C-14.6763689 24.55257596 -9.17609793 21.35198719 -3.90112305 18.15405273 C-2.24039326 17.14592769 -0.61647898 16.07765265 1 15 C0.67 14.34 0.34 13.68 0 13 C-0.54003662 13.36351562 -1.08007324 13.72703125 -1.63647461 14.1015625 C-4.06856008 15.73675411 -6.50299073 17.36841945 -8.9375 19 C-9.78763672 19.57234375 -10.63777344 20.1446875 -11.51367188 20.734375 C-12.32255859 21.27578125 -13.13144531 21.8171875 -13.96484375 22.375 C-15.08814087 23.12910156 -15.08814087 23.12910156 -16.23413086 23.8984375 C-18 25 -18 25 -19 25 C-19.55388109 21.19986786 -19.72860434 17.78517283 -19 14 C-16.50940459 10.85528678 -13.45938117 8.95671133 -10.0625 6.875 C-9.21236328 6.31296875 -8.36222656 5.7509375 -7.48632812 5.171875 C-5.92420995 4.14125042 -4.35159657 3.12624009 -2.76586914 2.13232422 C-1.04880471 1.11999037 -1.04880471 1.11999037 0 0 Z " fill="#050401" transform="translate(184,135)"/>
<path d="M0 0 C0.33 0.66 0.66 1.32 1 2 C0.14435628 4.41628967 -0.77370978 6.75806707 -1.75 9.125 C-11.72684533 34.75666394 -9.91702612 62.00857256 1 87 C5.11862697 95.85504799 10.72037348 104.87188594 17.76953125 111.71875 C19 113 19 113 19 115 C19.88558594 115.39832031 19.88558594 115.39832031 20.7890625 115.8046875 C23.05716052 117.03090304 24.53352098 118.33351588 26.375 120.125 C31.94581519 125.12204209 38.45514139 128.47287691 45 132 C45.721875 132.41378906 46.44375 132.82757813 47.1875 133.25390625 C67.12356583 144.21014933 93.4030208 144.47405913 114.86010742 138.47827148 C135.13124968 132.40896426 151.56209247 121.26293082 166 106 C166.99575377 104.99577173 167.99326622 103.99322057 169 103 C161.83471491 123.12219957 142.48921374 137.18736863 124.02490234 146.09960938 C118.21646439 148.68238236 112.12910686 150.36689386 106 152 C104.74896484 152.36931641 104.74896484 152.36931641 103.47265625 152.74609375 C79.87039575 158.76072955 52.43811067 151.87652172 32 140 C24.19289417 134.78252169 16.49948737 128.8014547 10 122 C10 121.34 10 120.68 10 120 C9.34 120 8.68 120 8 120 C-10.49963328 98.56280681 -17.35839789 71.8202044 -16 44 C-14.78335077 28.50170673 -8.61439164 12.85730095 0 0 Z " fill="#765F20" transform="translate(126,138)"/>
<path d="M0 0 C0 18.48 0 36.96 0 56 C-12.87 56.99 -12.87 56.99 -26 58 C-29.465 58.495 -29.465 58.495 -33 59 C-32.84375 57.22265625 -32.84375 57.22265625 -32 55 C-29.53125 53.18359375 -29.53125 53.18359375 -26.5 51.4375 C-22.13502444 49.16403896 -22.13502444 49.16403896 -20 45 C-20.60328125 45.33773437 -21.2065625 45.67546875 -21.828125 46.0234375 C-22.62734375 46.46945313 -23.4265625 46.91546875 -24.25 47.375 C-25.03890625 47.81585938 -25.8278125 48.25671875 -26.640625 48.7109375 C-28.73914197 49.85747823 -30.8536077 50.94649552 -33 52 C-33.8318376 48.74196941 -33.98948603 46.23654545 -33 43 C-30.0973504 40.21345639 -27.0744317 38.04794758 -23.72265625 35.84765625 C-20.93687679 34.28123289 -20.93687679 34.28123289 -20 32 C-24.44365551 34.17220877 -28.8004541 36.37528381 -33 39 C-33.79063653 35.42749418 -34.02225996 32.54014162 -33 29 C-30.08755911 26.41547838 -27.11607042 24.59251197 -23.72265625 22.69140625 C-20.72124172 21.22867612 -20.72124172 21.22867612 -20 18 C-24.79697523 20.65919555 -24.79697523 20.65919555 -29.3125 23.75 C-31 25 -31 25 -33 25 C-33.73930519 21.77394097 -33.91305408 19.20309242 -33 16 C-29.7118073 12.7118073 -26.06696825 10.24110713 -22 8 C-21.34 8 -20.68 8 -20 8 C-20 7.01 -20 6.02 -20 5 C-24.44441654 7.16800807 -28.72509633 9.52055587 -33 12 C-33.73835058 8.77810656 -33.85786661 6.20960438 -33 3 C-23.28715383 -8.94108735 -12.68122613 -4.22707538 0 0 Z " fill="#090802" transform="translate(267,157)"/>
<path d="M0 0 C9 1 9 1 19 4 C19.33 30.73 19.66 57.46 20 85 C2 93 2 93 0 93 C0 62.31 0 31.62 0 0 Z " fill="#4E3A18" transform="translate(189,140)"/>
<path d="M0 0 C0 17.16 0 34.32 0 52 C-18.57142857 49.67857143 -18.57142857 49.67857143 -28 46 C-28 45.34 -28 44.68 -28 44 C-26.4011809 42.76969274 -24.74469415 41.61359837 -23.0625 40.5 C-19.43229314 38.29021822 -19.43229314 38.29021822 -17 35 C-22.56717533 37.35456323 -22.56717533 37.35456323 -28 40 C-28.30859375 37.234375 -28.30859375 37.234375 -28 34 C-25.84765625 31.953125 -25.84765625 31.953125 -23.0625 30.25 C-19.41149014 28.199302 -19.41149014 28.199302 -17 25 C-22.56717533 27.35456323 -22.56717533 27.35456323 -28 30 C-28.30859375 27.23046875 -28.30859375 27.23046875 -28 24 C-25.84765625 21.98828125 -25.84765625 21.98828125 -23.0625 20.3125 C-18.98002227 18.03219432 -18.98002227 18.03219432 -17 14 C-18.0725 14.61875 -19.145 15.2375 -20.25 15.875 C-22.79780984 17.3323679 -25.35259355 18.72924491 -28 20 C-28.625 16.9375 -28.625 16.9375 -28 13 C-25.57373929 10.8375573 -23.05209908 9.18110731 -20.28515625 7.48046875 C-17.8901722 6.20325832 -17.8901722 6.20325832 -17 4 C-20.48249231 5.25756667 -23.06465849 6.7731892 -26 9 C-26.66 9 -27.32 9 -28 9 C-28.5 5.875 -28.5 5.875 -28 2 C-20.27563358 -7.91926836 -10.26772634 -3.0803179 0 0 Z " fill="#4D3917" transform="translate(317,171)"/>
<path d="M0 0 C8 0 8 0 15 2 C15 19.82 15 37.64 15 56 C10.05 56 5.1 56 0 56 C0 37.52 0 19.04 0 0 Z " fill="#4C3817" transform="translate(250,157)"/>
<path d="M0 0 C0 17.16 0 34.32 0 52 C-0.66 51.67 -1.32 51.34 -2 51 C-2.33 34.83 -2.66 18.66 -3 2 C-8.94 0.515 -8.94 0.515 -15 -1 C-15 15.5 -15 32 -15 49 C-24 47.875 -24 47.875 -28 46 C-28 45.34 -28 44.68 -28 44 C-26.4011809 42.76969274 -24.74469415 41.61359837 -23.0625 40.5 C-19.43229314 38.29021822 -19.43229314 38.29021822 -17 35 C-22.56717533 37.35456323 -22.56717533 37.35456323 -28 40 C-28.30859375 37.234375 -28.30859375 37.234375 -28 34 C-25.84765625 31.953125 -25.84765625 31.953125 -23.0625 30.25 C-19.41149014 28.199302 -19.41149014 28.199302 -17 25 C-22.56717533 27.35456323 -22.56717533 27.35456323 -28 30 C-28.30859375 27.23046875 -28.30859375 27.23046875 -28 24 C-25.84765625 21.98828125 -25.84765625 21.98828125 -23.0625 20.3125 C-18.98002227 18.03219432 -18.98002227 18.03219432 -17 14 C-18.0725 14.61875 -19.145 15.2375 -20.25 15.875 C-22.79780984 17.3323679 -25.35259355 18.72924491 -28 20 C-28.625 16.9375 -28.625 16.9375 -28 13 C-25.57373929 10.8375573 -23.05209908 9.18110731 -20.28515625 7.48046875 C-17.8901722 6.20325832 -17.8901722 6.20325832 -17 4 C-20.48249231 5.25756667 -23.06465849 6.7731892 -26 9 C-26.66 9 -27.32 9 -28 9 C-28.5 5.875 -28.5 5.875 -28 2 C-20.27563358 -7.91926836 -10.26772634 -3.0803179 0 0 Z " fill="#090702" transform="translate(317,171)"/>
<path d="M0 0 C4.30899048 1.21396253 8.64392093 2.32876544 12.97631836 3.45581055 C15.34701393 4.07531036 17.7151942 4.70454371 20.08032227 5.3449707 C30.85123327 8.21916618 40.99680004 8.90682887 52.1171875 9.28222656 C53.91639648 9.34700195 53.91639648 9.34700195 55.75195312 9.41308594 C58.68610543 9.51829459 61.62033 9.62043539 64.5546875 9.71972656 C64.2246875 10.70972656 63.8946875 11.69972656 63.5546875 12.71972656 C42.18469655 14.05236111 24.03876207 11.33921069 3.54393005 5.3885498 C-7.50132132 2.22100004 -18.28604625 0.21726829 -29.8203125 0.40722656 C-30.82191406 0.40400391 -31.82351562 0.40078125 -32.85546875 0.39746094 C-38.97549834 0.44146115 -44.54551437 1.10085258 -50.4453125 2.71972656 C-51.47140625 3.00074219 -52.4975 3.28175781 -53.5546875 3.57128906 C-55.32610389 4.09013588 -57.09693222 4.61099437 -58.8671875 5.13378906 C-61.48200391 5.72806552 -63.77379169 5.82543422 -66.4453125 5.71972656 C-66.1153125 4.72972656 -65.7853125 3.73972656 -65.4453125 2.71972656 C-62.86731546 1.69090652 -60.41384898 0.85695492 -57.7578125 0.09472656 C-57.04947266 -0.12183594 -56.34113281 -0.33839844 -55.61132812 -0.56152344 C-38.03486484 -5.81985594 -17.56297276 -4.98387867 0 0 Z " fill="#DAB933" transform="translate(285.4453125,229.2802734375)"/>
<path d="M0 0 C0.99 0 1.98 0 3 0 C3 17.16 3 34.32 3 52 C2.34 51.67 1.68 51.34 1 51 C0.67 34.17 0.34 17.34 0 0 Z " fill="#000000" transform="translate(314,171)"/>
<path d="M0 0 C1.99954746 -0.04254356 4.00041636 -0.04080783 6 0 C7 1 7 1 7.09765625 2.84765625 C7.06510417 4.8984375 7.03255208 6.94921875 7 9 C4.525 8.01 4.525 8.01 2 7 C2 7.66 2 8.32 2 9 C1.34 9 0.68 9 0 9 C0 6.03 0 3.06 0 0 Z " fill="#837420" transform="translate(105,341)"/>
<path d="M0 0 C3.10551666 3.10551666 3.81323934 4.89198233 5 9 C4.34 9 3.68 9 3 9 C3 8.34 3 7.68 3 7 C1.35 7 -0.3 7 -2 7 C-2 7.66 -2 8.32 -2 9 C-2.66 8.67 -3.32 8.34 -4 8 C-2.68 5.36 -1.36 2.72 0 0 Z " fill="#C7AF31" transform="translate(143,341)"/>
<path d="M0 0 C2.31 0 4.62 0 7 0 C7 0.66 7 1.32 7 2 C5.35 2 3.7 2 2 2 C2 2.66 2 3.32 2 4 C3.32 4.33 4.64 4.66 6 5 C4.68 5 3.36 5 2 5 C2 5.99 2 6.98 2 8 C3.65 8 5.3 8 7 8 C7 8.33 7 8.66 7 9 C4.69 9 2.38 9 0 9 C0 6.03 0 3.06 0 0 Z " fill="#AC982A" transform="translate(269,341)"/>
<path d="M0 0 C1.98 0 3.96 0 6 0 C6 0.66 6 1.32 6 2 C4.68 2 3.36 2 2 2 C2 2.66 2 3.32 2 4 C3.32 4.33 4.64 4.66 6 5 C4.68 5 3.36 5 2 5 C2 5.99 2 6.98 2 8 C3.65 8 5.3 8 7 8 C7 8.33 7 8.66 7 9 C4.69 9 2.38 9 0 9 C0 6.03 0 3.06 0 0 Z " fill="#B49E2C" transform="translate(186,341)"/>
<path d="M0 0 C1.98 0 3.96 0 6 0 C6 0.66 6 1.32 6 2 C4.68 2 3.36 2 2 2 C2 2.66 2 3.32 2 4 C3.32 4.33 4.64 4.66 6 5 C4.68 5 3.36 5 2 5 C2 5.99 2 6.98 2 8 C3.65 8 5.3 8 7 8 C7 8.33 7 8.66 7 9 C4.69 9 2.38 9 0 9 C0 6.03 0 3.06 0 0 Z " fill="#B49E2C" transform="translate(123,341)"/>
<path d="M0 0 C0.99 0.33 1.98 0.66 3 1 C4.1875 4.5625 4.1875 4.5625 5 8 C3.02 7.34 1.04 6.68 -1 6 C-1 6.66 -1 7.32 -1 8 C-1.66 8 -2.32 8 -3 8 C-1.125 1.125 -1.125 1.125 0 0 Z " fill="#9F8C27" transform="translate(301,342)"/>
<path d="M0 0 C0.99 0.33 1.98 0.66 3 1 C4.1875 4.5625 4.1875 4.5625 5 8 C3.02 7.34 1.04 6.68 -1 6 C-1 6.66 -1 7.32 -1 8 C-1.66 8 -2.32 8 -3 8 C-1.125 1.125 -1.125 1.125 0 0 Z " fill="#9F8C27" transform="translate(238,342)"/>
<path d="M0 0 C2.76223278 2.76223278 2.57856291 5.20706617 3 9 C2.34 9 1.68 9 1 9 C1 14.28 1 19.56 1 25 C0.67 25 0.34 25 0 25 C0 16.75 0 8.5 0 0 Z " fill="#937D22" transform="translate(371,191)"/>
<path d="M0 0 C2.64 0 5.28 0 8 0 C8 0.66 8 1.32 8 2 C7.01 2 6.02 2 5 2 C5 4.31 5 6.62 5 9 C4.34 9 3.68 9 3 9 C3 6.69 3 4.38 3 2 C2.01 2 1.02 2 0 2 C0 1.34 0 0.68 0 0 Z " fill="#948224" transform="translate(218,341)"/>
<path d="M0 0 C2.31 0 4.62 0 7 0 C7 0.66 7 1.32 7 2 C6.34 2 5.68 2 5 2 C5 4.31 5 6.62 5 9 C4.34 9 3.68 9 3 9 C3 6.69 3 4.38 3 2 C2.01 2 1.02 2 0 2 C0 1.34 0 0.68 0 0 Z " fill="#9A8725" transform="translate(252,341)"/>
<path d="M0 0 C1.67542976 0.28604898 3.34385343 0.61781233 5 1 C4.67 2.65 4.34 4.3 4 6 C2.68 5.67 1.36 5.34 0 5 C-0.5625 3.0625 -0.5625 3.0625 -1 1 C-0.67 0.67 -0.34 0.34 0 0 Z " fill="#0A0902" transform="translate(318,343)"/>
<path d="M0 0 C1 2 1 2 0.22265625 4.6015625 C-0.16019531 5.59929687 -0.54304688 6.59703125 -0.9375 7.625 C-1.31777344 8.62789062 -1.69804688 9.63078125 -2.08984375 10.6640625 C-2.39019531 11.43492187 -2.69054687 12.20578125 -3 13 C-3.99 12.67 -4.98 12.34 -6 12 C-4.68139111 7.38486888 -2.78644563 3.90102388 0 0 Z " fill="#402F13" transform="translate(126,138)"/>
<path d="M0 0 C0.99 0.99 1.98 1.98 3 3 C2.67 3.99 2.34 4.98 2 6 C1.01 6 0.02 6 -1 6 C-1.33 5.01 -1.66 4.02 -2 3 C-1.34 2.01 -0.68 1.02 0 0 Z " fill="#786A1D" transform="translate(143,341)"/>
</svg>
